<svg width="12" height="13" viewBox="0 0 12 13" fill="none" xmlns="http://www.w3.org/2000/svg">
<path d="M11 5.38878H1M8.22222 0.944336V3.16656M3.77778 0.944336V3.16656M3.66667 12.0554H8.33333C9.26675 12.0554 9.73346 12.0554 10.09 11.8738C10.4036 11.714 10.6586 11.459 10.8183 11.1454C11 10.7889 11 10.3222 11 9.38878V4.72211C11 3.78869 11 3.32198 10.8183 2.96546C10.6586 2.65186 10.4036 2.39689 10.09 2.2371C9.73346 2.05545 9.26675 2.05545 8.33333 2.05545H3.66667C2.73325 2.05545 2.26654 2.05545 1.91002 2.2371C1.59641 2.39689 1.34144 2.65186 1.18166 2.96546C1 3.32198 1 3.78869 1 4.72211V9.38878C1 10.3222 1 10.7889 1.18166 11.1454C1.34144 11.459 1.59641 11.714 1.91002 11.8738C2.26654 12.0554 2.73325 12.0554 3.66667 12.0554Z" stroke="#6F6E6F" stroke-width="1.11111" stroke-linecap="round" stroke-linejoin="round"/>
</svg>
